<mxfile host="app.diagrams.net" agent="Mozilla/5.0 (Windows NT 10.0; Win64; x64; rv:141.0) Gecko/20100101 Firefox/141.0" version="28.1.0">
  <diagram name="Page-1" id="7Iz6zAXDvCPQBZca-U5n">
    <mxGraphModel dx="1204" dy="906" grid="0" gridSize="10" guides="1" tooltips="1" connect="1" arrows="1" fold="1" page="0" pageScale="1" pageWidth="850" pageHeight="1100" math="0" shadow="0">
      <root>
        <mxCell id="0" />
        <mxCell id="1" parent="0" />
        <mxCell id="84_bWdgrRChN5E1CUdbr-6" value="Variabel Pemoderasi" style="text;html=1;align=center;verticalAlign=middle;resizable=0;points=[];autosize=1;strokeColor=none;fillColor=none;fontSize=16;" parent="1" vertex="1">
          <mxGeometry x="120" y="293" width="165" height="31" as="geometry" />
        </mxCell>
        <mxCell id="84_bWdgrRChN5E1CUdbr-7" value="" style="endArrow=classic;html=1;rounded=0;fontSize=12;startSize=8;endSize=8;curved=1;entryX=0.117;entryY=0.775;entryDx=0;entryDy=0;entryPerimeter=0;" parent="1" source="ePm5CTQO-xM1KMZKioyG-3" target="ePm5CTQO-xM1KMZKioyG-5" edge="1">
          <mxGeometry width="50" height="50" relative="1" as="geometry">
            <mxPoint x="25" y="135" as="sourcePoint" />
            <mxPoint x="389" y="67" as="targetPoint" />
          </mxGeometry>
        </mxCell>
        <mxCell id="84_bWdgrRChN5E1CUdbr-8" value="" style="endArrow=classic;html=1;rounded=0;fontSize=12;startSize=8;endSize=8;curved=1;exitX=1;exitY=0.5;exitDx=0;exitDy=0;" parent="1" target="ePm5CTQO-xM1KMZKioyG-5" edge="1">
          <mxGeometry width="50" height="50" relative="1" as="geometry">
            <mxPoint x="25" y="57" as="sourcePoint" />
            <mxPoint x="389" y="52.70754716981128" as="targetPoint" />
          </mxGeometry>
        </mxCell>
        <mxCell id="84_bWdgrRChN5E1CUdbr-9" value="" style="endArrow=classic;html=1;rounded=0;fontSize=12;startSize=8;endSize=8;curved=1;exitX=1;exitY=0.5;exitDx=0;exitDy=0;entryX=0.092;entryY=0.288;entryDx=0;entryDy=0;entryPerimeter=0;" parent="1" target="ePm5CTQO-xM1KMZKioyG-5" edge="1">
          <mxGeometry width="50" height="50" relative="1" as="geometry">
            <mxPoint x="25" y="-27" as="sourcePoint" />
            <mxPoint x="389" y="37" as="targetPoint" />
          </mxGeometry>
        </mxCell>
        <mxCell id="84_bWdgrRChN5E1CUdbr-10" value="" style="endArrow=classic;html=1;rounded=0;fontSize=12;startSize=8;endSize=8;curved=1;entryX=0.342;entryY=0.975;entryDx=0;entryDy=0;exitX=0.47;exitY=0.017;exitDx=0;exitDy=0;exitPerimeter=0;entryPerimeter=0;" parent="1" target="ePm5CTQO-xM1KMZKioyG-5" edge="1">
          <mxGeometry width="50" height="50" relative="1" as="geometry">
            <mxPoint x="197.4000000000001" y="214.01999999999998" as="sourcePoint" />
            <mxPoint x="419" y="82" as="targetPoint" />
          </mxGeometry>
        </mxCell>
        <mxCell id="84_bWdgrRChN5E1CUdbr-11" value="" style="endArrow=classic;html=1;rounded=0;fontSize=12;startSize=8;endSize=8;curved=1;exitX=0.5;exitY=0;exitDx=0;exitDy=0;" parent="1" edge="1">
          <mxGeometry width="50" height="50" relative="1" as="geometry">
            <mxPoint x="201" y="213" as="sourcePoint" />
            <mxPoint x="309" y="83" as="targetPoint" />
          </mxGeometry>
        </mxCell>
        <mxCell id="84_bWdgrRChN5E1CUdbr-12" value="" style="endArrow=classic;html=1;rounded=0;fontSize=12;startSize=8;endSize=8;curved=1;entryX=0;entryY=0.75;entryDx=0;entryDy=0;" parent="1" edge="1">
          <mxGeometry width="50" height="50" relative="1" as="geometry">
            <mxPoint x="199" y="215" as="sourcePoint" />
            <mxPoint x="259" y="56" as="targetPoint" />
          </mxGeometry>
        </mxCell>
        <mxCell id="84_bWdgrRChN5E1CUdbr-13" value="" style="endArrow=classic;html=1;rounded=0;fontSize=12;startSize=8;endSize=8;curved=1;entryX=0;entryY=0.75;entryDx=0;entryDy=0;exitX=0.48;exitY=0.064;exitDx=0;exitDy=0;exitPerimeter=0;" parent="1" edge="1">
          <mxGeometry width="50" height="50" relative="1" as="geometry">
            <mxPoint x="198.5999999999999" y="216.83999999999992" as="sourcePoint" />
            <mxPoint x="184" y="2" as="targetPoint" />
          </mxGeometry>
        </mxCell>
        <mxCell id="84_bWdgrRChN5E1CUdbr-14" value="H1" style="text;html=1;align=center;verticalAlign=middle;resizable=0;points=[];autosize=1;strokeColor=none;fillColor=none;fontSize=16;" parent="1" vertex="1">
          <mxGeometry x="32.5" y="-65" width="38" height="31" as="geometry" />
        </mxCell>
        <mxCell id="84_bWdgrRChN5E1CUdbr-15" value="H2" style="text;html=1;align=center;verticalAlign=middle;resizable=0;points=[];autosize=1;strokeColor=none;fillColor=none;fontSize=16;" parent="1" vertex="1">
          <mxGeometry x="32.5" y="28.5" width="38" height="31" as="geometry" />
        </mxCell>
        <mxCell id="84_bWdgrRChN5E1CUdbr-16" value="H3" style="text;html=1;align=center;verticalAlign=middle;resizable=0;points=[];autosize=1;strokeColor=none;fillColor=none;fontSize=16;" parent="1" vertex="1">
          <mxGeometry x="32.5" y="100" width="38" height="31" as="geometry" />
        </mxCell>
        <mxCell id="84_bWdgrRChN5E1CUdbr-17" value="H4" style="text;html=1;align=center;verticalAlign=middle;resizable=0;points=[];autosize=1;strokeColor=none;fillColor=none;fontSize=16;" parent="1" vertex="1">
          <mxGeometry x="385" y="98" width="38" height="31" as="geometry" />
        </mxCell>
        <mxCell id="84_bWdgrRChN5E1CUdbr-18" value="H5" style="text;html=1;align=center;verticalAlign=middle;resizable=0;points=[];autosize=1;strokeColor=none;fillColor=none;fontSize=16;" parent="1" vertex="1">
          <mxGeometry x="149" y="10" width="38" height="31" as="geometry" />
        </mxCell>
        <mxCell id="84_bWdgrRChN5E1CUdbr-19" value="H6" style="text;html=1;align=center;verticalAlign=middle;resizable=0;points=[];autosize=1;strokeColor=none;fillColor=none;fontSize=16;" parent="1" vertex="1">
          <mxGeometry x="215" y="59.5" width="38" height="31" as="geometry" />
        </mxCell>
        <mxCell id="84_bWdgrRChN5E1CUdbr-20" value="H7" style="text;html=1;align=center;verticalAlign=middle;resizable=0;points=[];autosize=1;strokeColor=none;fillColor=none;fontSize=16;" parent="1" vertex="1">
          <mxGeometry x="255" y="88.5" width="38" height="31" as="geometry" />
        </mxCell>
        <mxCell id="ePm5CTQO-xM1KMZKioyG-1" value="Pelatihan (X1)" style="ellipse;whiteSpace=wrap;html=1;" vertex="1" parent="1">
          <mxGeometry x="-95" y="-70" width="120" height="80" as="geometry" />
        </mxCell>
        <mxCell id="ePm5CTQO-xM1KMZKioyG-2" value="&lt;i&gt;Work-life Balance &lt;/i&gt;(X2)" style="ellipse;whiteSpace=wrap;html=1;" vertex="1" parent="1">
          <mxGeometry x="-95" y="18" width="120" height="80" as="geometry" />
        </mxCell>
        <mxCell id="ePm5CTQO-xM1KMZKioyG-3" value="&lt;div&gt;Beban Kerja (X3)&lt;/div&gt;" style="ellipse;whiteSpace=wrap;html=1;" vertex="1" parent="1">
          <mxGeometry x="-95" y="106" width="120" height="80" as="geometry" />
        </mxCell>
        <mxCell id="ePm5CTQO-xM1KMZKioyG-4" value="Digitalisasi (Z)" style="ellipse;whiteSpace=wrap;html=1;" vertex="1" parent="1">
          <mxGeometry x="135" y="213" width="120" height="80" as="geometry" />
        </mxCell>
        <mxCell id="ePm5CTQO-xM1KMZKioyG-5" value="Produktivitas (Y)" style="ellipse;whiteSpace=wrap;html=1;" vertex="1" parent="1">
          <mxGeometry x="390" y="4" width="120" height="80" as="geometry" />
        </mxCell>
        <mxCell id="ePm5CTQO-xM1KMZKioyG-6" value="&lt;div&gt;H1: Pelatihan terhadap Produktivitas&lt;/div&gt;&lt;div&gt;H2: &lt;i&gt;Work-life Balance&lt;/i&gt; terhadap Produktivitas&lt;/div&gt;&lt;div&gt;H3: Beban Kerja terhadap Produktivitas&lt;/div&gt;&lt;div&gt;H4: Digitalisasi terhadap Produktivitas&lt;/div&gt;&lt;div&gt;H5: Pelatihan terhadap Produktivitas dimoderasi Digitalisasi&lt;/div&gt;&lt;div&gt;H6: &lt;i&gt;Work-life Balance&lt;/i&gt; terhadap Produktivitas dimoderasi Digitalisasi&lt;/div&gt;&lt;div&gt;H7: Beban Kerja terhadap Produktivitas dimoderasi Digitalisasi&lt;/div&gt;" style="text;whiteSpace=wrap;html=1;" vertex="1" parent="1">
          <mxGeometry x="322" y="157" width="223" height="171" as="geometry" />
        </mxCell>
      </root>
    </mxGraphModel>
  </diagram>
</mxfile>
